# xmcd CD database file
#
# Track frame offsets:
#	150
#	12670
#	25680
#	40120
#	50670
#	70067
#	81527
#	95210
#	117737
#	132225
#	144385
#	159757
#	170445
#	181855
#
# Disc length: 2566 seconds
#
# Revision: 0
# Processed by: cddbd v1.4PL0 Copyright (c) Steve Scherf et al.
# Submitted via: CDex 1.50beta9
#
DISCID=c00a040e
DTITLE=Dinah Washington - the Diff'rence is Dinah CD2
DYEAR=2000
DGENRE=Jazz
TTITLE0=TEACH ME TONIGHT
TTITLE1=THAT'S ALL I WANT FROM YOU
TTITLE2=ME AND MY GIN
TTITLE3=LOVER COME BACK TO ME
TTITLE4=MANHATTAN
TTITLE5=IT'S MAGIC
TTITLE6=SOFT WINDS
TTITLE7=EASY LIVING
TTITLE8=I'VE GOT MY LOVE TO KEEP ME WARM
TTITLE9=WAKE THE TOWN AND TELL THE PEOPLE
TTITLE10=MOOD INDIGO
TTITLE11=SIX BRIDGES TO CROSS
TTITLE12=AN AFFAIR TO REMEMBER
TTITLE13=YOU DO SOMETHING TO ME
EXTD=YEAR: 2000
EXTT0=
EXTT1=
EXTT2=
EXTT3=
EXTT4=
EXTT5=
EXTT6=
EXTT7=
EXTT8=
EXTT9=
EXTT10=
EXTT11=
EXTT12=
EXTT13=
PLAYORDER=
